<svg width="434" height="262" viewBox="0 0 434 262" fill="none" xmlns="http://www.w3.org/2000/svg">
<path d="M102.197 68.3323H183.889V74.8433H109.687V123.842H179.463V130.353H109.687V184.149H184.739V190.66H102.197V68.3323V68.3323ZM191.206 68.3323H199.887L238.35 122.128L277.663 68.3323L331.136 0L243.285 127.783L288.555 190.66H279.534L238.35 133.437L196.995 190.66H188.144L233.754 127.783L191.209 68.3323H191.206ZM291.79 74.8433V68.3323H384.881V74.8433H341.996V190.657H334.505V74.8433H291.793H291.79ZM0 68.3323H9.36131L138.434 262L85.0935 190.66L7.82748 77.5839L7.48729 190.66H0V68.3323V68.3323ZM384.13 182.183C382.597 182.183 381.45 180.995 381.45 179.46C381.45 177.923 382.596 176.734 384.127 176.734C385.676 176.734 386.805 177.923 386.805 179.46C386.805 180.995 385.676 182.183 384.127 182.183H384.13ZM391.486 175.015H395.495C395.55 177.192 397.137 178.653 399.466 178.653C402.07 178.653 403.545 177.083 403.545 174.138V155.488H407.625V174.155C407.625 179.46 404.566 182.515 399.501 182.515C394.75 182.515 391.489 179.551 391.489 175.015H391.486ZM412.959 174.78H417.003C417.349 177.283 419.79 178.873 423.306 178.873C426.582 178.873 428.987 177.172 428.987 174.833C428.987 172.823 427.459 171.614 423.977 170.793L420.59 169.971C415.839 168.856 413.669 166.55 413.669 162.674C413.669 157.973 417.493 154.845 423.23 154.845C428.567 154.845 432.468 157.973 432.702 162.415H428.731C428.35 159.986 426.239 158.466 423.177 158.466C419.951 158.466 417.804 160.021 417.804 162.398C417.804 164.281 419.188 165.361 422.614 166.165L425.508 166.878C430.899 168.14 433.122 170.335 433.122 174.302C433.122 179.349 429.221 182.515 422.995 182.515C417.168 182.515 413.25 179.495 412.959 174.777V174.78Z" fill="white"/>
</svg>
