<svg width="130" height="94" viewBox="0 0 130 94" fill="none" xmlns="http://www.w3.org/2000/svg">
<path fill-rule="evenodd" clip-rule="evenodd" d="M55.0644 0C56.4658 0 57.6019 1.13437 57.6019 2.53369V54.9811C57.6019 56.3805 56.4658 57.5148 55.0644 57.5148H29.1816V91.4663C29.1816 92.8656 28.0455 94 26.6441 94H14.337C13.236 94 12.2606 93.2911 11.9223 92.2449L0.122776 55.7597C0.0414261 55.5082 0 55.2455 0 54.9811V2.53369C0 1.13437 1.13609 0 2.53753 0H55.0644ZM52.5269 52.4474V5.06739H5.07506V54.5822L16.1842 88.9326H24.1065V54.9811C24.1065 53.5818 25.2426 52.4474 26.6441 52.4474H52.5269ZM126.623 0C128.024 0 129.16 1.13437 129.16 2.53369V54.9811C129.16 56.3805 128.024 57.5148 126.623 57.5148H100.74V91.4663C100.74 92.8656 99.6039 94 98.2025 94H85.8954C84.7944 94 83.819 93.2911 83.4807 92.2449L71.6812 55.7597C71.5998 55.5082 71.5584 55.2455 71.5584 54.9811V2.53369C71.5584 1.13437 72.6945 0 74.0959 0H126.623ZM124.085 52.4474V5.06739H76.6335V54.5822L87.7426 88.9326H95.6649V54.9811C95.6649 53.5818 96.801 52.4474 98.2025 52.4474H124.085Z" fill="url(#paint0_linear)"/>
<defs>
<linearGradient id="paint0_linear" x1="3.03272e-07" y1="47.1267" x2="129.16" y2="47.1267" gradientUnits="userSpaceOnUse">
<stop stop-color="#007CF0"/>
<stop offset="1" stop-color="#00DFD8"/>
</linearGradient>
</defs>
</svg>
